<?xml version="1.0" encoding="utf-8"?>
<!-- Svg Vector Icons : http://www.onlinewebfonts.com/icon -->
<!DOCTYPE svg PUBLIC "-//W3C//DTD SVG 1.1//EN" "http://www.w3.org/Graphics/SVG/1.1/DTD/svg11.dtd">
<svg version="1.1" xmlns="http://www.w3.org/2000/svg" xmlns:xlink="http://www.w3.org/1999/xlink" x="0px" y="0px" viewBox="0 0 256 256" enable-background="new 0 0 256 256" xml:space="preserve">
<metadata> Svg Vector Icons : http://www.onlinewebfonts.com/icon </metadata>
<g><g><path fill="#000000" d="M123.7,246.1c-2.8-0.3-5.7-0.6-8.5-0.9c-25.9-2.9-48.5-13.1-67.6-30.9c-19.9-18.5-32.3-41.3-36.2-68.2C6,108.8,15.9,75.7,41.4,47.9c19.3-21.1,43.4-33.5,71.8-37c63-7.9,118.3,34.3,130.1,92.4c8.5,42.1-2.8,78.8-33.1,109.2c-18,18.1-40.1,28.6-65.5,32.2c-4.1,0.6-8.3,1-12.5,1.4C129.4,246.1,126.6,246.1,123.7,246.1z M43.6,198.5c0.2-0.2,0.4-0.4,0.6-0.7c3.2-5.2,7.5-9.1,13-11.4c6.2-2.6,12.6-4.5,18.9-6.9c6.1-2.3,12.3-4.6,18.1-7.6c5.2-2.6,8-7.3,8.1-13.3c0-0.9-0.4-2-0.9-2.7c-2.7-3.9-5.6-7.7-8.4-11.6c-0.5-0.6-0.9-1.3-1.6-1.7c-6.3-4.7-10.2-11-12.3-18.6c-1.1-3.8-0.6-7.4,1-10.9c0.6-1.2,0.8-2.6,1-4c0.5-6.3,0.4-12.7,1.5-18.9c2-11,6.5-20.4,18-24.6c0.7-0.2,1.2-0.7,1.9-1c10.9-5.3,22.3-8.6,34.5-8.3c9.3,0.2,17.3,3.3,21.8,12.3c0.3,0.5,1,1,1.5,1.2c7.6,1.8,11.5,7.1,13.6,14.1c2.5,8.5,2,17.1,1,25.8c-0.1,1,0.1,2.2,0.6,3.1c1.5,3,2.3,6.2,1.6,9.5c-1.3,6.2-3.8,12.1-8.5,16.4c-4.2,3.8-7.3,8.2-10.4,12.8c-1.7,2.6-3.9,4.9-5.9,7.3c-2.2,2.5-2.4,3.8-0.5,6.6c0.7,1.1,1.7,2.1,2.6,3c3.9,3.5,8.5,5.4,13.4,7c9,3.1,18.1,6,26.9,9.5c5.7,2.2,11.2,5.2,15.6,9.8c1,1,1.9,2.2,2.8,3.3c35.5-42.1,35.1-109.6-10.6-151.3C156.1,4.3,85.1,8.6,44.4,56C4.9,101.9,12.9,164.4,43.6,198.5z M129.9,238.3c3.3-0.3,8.8-0.5,14.1-1.3c23.5-3.5,43.8-13.7,60.9-30.1c2.8-2.7,2.9-3.4,0.4-6.3c-1.1-1.3-2.4-2.5-3.9-3.4c-2.8-1.8-5.7-3.8-8.8-4.9c-9-3.4-18-6.5-27.1-9.6c-6.7-2.3-13.1-5.1-18.1-10.4c-3.7-4-5.5-8.6-4.6-14.1c0.1-0.7,0.5-1.5,1-2c5.4-5,9.5-10.9,13.1-17.3c0.4-0.6,0.9-1.3,1.5-1.7c5.2-3.1,8.2-8,10.3-13.5c1.3-3.3,0.8-6.2-1.4-9c-0.6-0.7-0.8-1.9-0.7-2.7c0.2-2.7,0.8-5.4,1-8.1c0.5-6.8,0.5-13.6-2.1-20.1c-1.8-4.3-4.9-6.9-9.8-6.5c-2,0.1-2.6-0.7-3.1-2.5c-1.4-5.9-5.4-9.3-11.2-10.2c-3.7-0.6-7.7-0.7-11.4-0.3c-10.8,1.1-20.7,5.1-30.1,10.3c-2.7,1.5-4.9,3.4-6.1,6.3c-1.3,3-2.6,6-3.4,9.2c-1.9,7-1.5,14.2-1.5,21.4c0,1.3-0.6,2.6-1,3.9c-0.5,1.8-1.8,3.8-1.5,5.5c1.2,6.5,4.5,11.9,10,15.8c1,0.7,1.9,1.6,2.6,2.6c3.2,4.2,6.3,8.5,9.4,12.9c0.9,1.3,1.7,2.8,1.7,4.3c0.5,11.2-4.9,19-14.7,23.7c-5.5,2.7-11.4,4.6-17.2,6.7c-6,2.2-12.1,4.1-18,6.6c-4.4,1.9-7.9,5.2-10.1,9.7c-0.7,1.4-0.5,2.4,0.7,3.5C72.3,227.3,98,237.8,129.9,238.3z"/></g></g>
</svg>